<?xml version="1.0" encoding="UTF-8"?>
<svg xmlns="http://www.w3.org/2000/svg" xmlns:xlink="http://www.w3.org/1999/xlink" width="82px" height="65px" viewBox="0 0 81 65" version="1.1">
<g id="surface1">
<path style=" stroke:none;fill-rule:evenodd;fill:rgb(47.45098%,32.156863%,70.196078%);fill-opacity:1;" d="M 16.863281 0.0078125 C 12.25 0.0078125 8.835938 4.082031 8.988281 8.5 C 9.132812 12.746094 8.945312 18.242188 7.570312 22.726562 C 6.195312 27.222656 3.867188 30.070312 0.0664062 30.4375 L 0.0664062 34.5625 C 3.867188 34.929688 6.195312 37.777344 7.570312 42.273438 C 8.945312 46.757812 9.132812 52.253906 8.988281 56.5 C 8.835938 60.917969 12.25 64.992188 16.863281 64.992188 L 64.144531 64.992188 C 68.757812 64.992188 72.171875 60.917969 72.015625 56.5 C 71.871094 52.253906 72.0625 46.757812 73.433594 42.273438 C 74.808594 37.777344 77.132812 34.929688 80.933594 34.5625 L 80.933594 30.4375 C 77.132812 30.070312 74.808594 27.222656 73.433594 22.726562 C 72.0625 18.242188 71.871094 12.746094 72.015625 8.5 C 72.171875 4.082031 68.757812 0.0078125 64.144531 0.0078125 Z M 54.890625 40.011719 C 54.890625 46.09375 50.394531 49.78125 42.929688 49.78125 L 30.21875 49.78125 C 29.464844 49.78125 28.851562 49.164062 28.851562 48.402344 L 28.851562 16.597656 C 28.851562 15.835938 29.464844 15.21875 30.21875 15.21875 L 42.855469 15.21875 C 49.082031 15.21875 53.164062 18.617188 53.164062 23.839844 C 53.164062 27.503906 50.417969 30.789062 46.917969 31.363281 L 46.917969 31.554688 C 51.683594 32.082031 54.890625 35.410156 54.890625 40.011719 Z M 41.542969 19.601562 L 34.296875 19.601562 L 34.296875 29.925781 L 40.398438 29.925781 C 45.117188 29.925781 47.71875 28.007812 47.71875 24.582031 C 47.71875 21.371094 45.480469 19.601562 41.542969 19.601562 Z M 34.296875 34.019531 L 34.296875 45.398438 L 41.808594 45.398438 C 46.722656 45.398438 49.324219 43.410156 49.324219 39.675781 C 49.324219 35.9375 46.648438 34.019531 41.492188 34.019531 Z M 34.296875 34.019531 "/>
</g>
</svg>
