<svg width="65" height="65" fill="none" xmlns="http://www.w3.org/2000/svg"><path d="M9.554 57.953L4.448.687h56.103l-5.11 57.257-22.975 6.37-22.912-6.361z" fill="#1572B6"/><path d="M32.5 59.445l18.566-5.147 4.367-48.93H32.501v54.077z" fill="#33A9DC"/><path d="M32.5 26.116h9.294l.642-7.192h-9.935V11.9h17.611l-.168 1.885-1.727 19.355H32.501v-7.024z" fill="#fff"/><path d="M32.542 44.357l-.03.009-7.823-2.112-.5-5.602h-7.05l.984 11.029 14.387 3.992.032-.009v-7.307z" fill="#EBEBEB"/><path d="M41.197 32.843l-.846 9.405-7.833 2.115v7.307l14.398-3.99.106-1.187 1.221-13.65h-7.046z" fill="#fff"/><path d="M32.524 11.9v7.024H15.56l-.14-1.578-.32-3.561-.168-1.885h17.593zm-.023 14.217v7.024h-7.724l-.14-1.579-.32-3.56-.169-1.885h8.353z" fill="#EBEBEB"/></svg>