<svg width="65" height="65" fill="none" xmlns="http://www.w3.org/2000/svg"><g clip-path="url(#clip0_58_247)"><path d="M21.667 65c5.98 0 10.833-4.854 10.833-10.834V43.333H21.667c-5.98 0-10.834 4.853-10.834 10.833S15.688 65 21.668 65z" fill="#0ACF83"/><path d="M10.834 32.5c0-5.98 4.853-10.833 10.833-10.833H32.5v21.667H21.667c-5.98 0-10.834-4.854-10.834-10.834z" fill="#A259FF"/><path d="M10.834 10.833C10.834 4.853 15.687 0 21.666 0H32.5v21.667H21.667c-5.98 0-10.834-4.854-10.834-10.834z" fill="#F24E1E"/><path d="M22.802 43.333h-1.135c-5.98 0-10.834 4.853-10.834 10.833S15.688 65 21.668 65c.384 0 .76-.02 1.135-.06V43.333z" fill="#09B472"/><path d="M22.802 21.667h-1.135c-5.98 0-10.834 4.853-10.834 10.833s4.854 10.834 10.834 10.834h1.135V21.667z" fill="#8D4DDE"/><path d="M22.802 0h-1.135c-5.98 0-10.834 4.853-10.834 10.833s4.854 10.834 10.834 10.834h1.135V0z" fill="#D3441A"/><path d="M32.5 0h10.833c5.98 0 10.834 4.853 10.834 10.833s-4.854 10.834-10.834 10.834H32.5V0z" fill="#FF7262"/><path d="M54.167 32.5c0 5.98-4.854 10.834-10.834 10.834-5.98 0-10.833-4.854-10.833-10.834 0-5.98 4.853-10.833 10.833-10.833S54.167 26.52 54.167 32.5z" fill="#1ABCFE"/><path d="M43.333 0H32.5v21.667h10.833V0z" fill="#DE6355"/><path d="M43.333 21.667c-5.98 0-10.833 4.853-10.833 10.833s4.853 10.834 10.833 10.834V21.667z" fill="#17A4DD"/></g><defs><clipPath id="clip0_58_247"><path fill="#fff" d="M0 0h65v65H0z"/></clipPath></defs></svg>