<svg width="65" height="65" fill="none" xmlns="http://www.w3.org/2000/svg"><path d="M63.346 29.645L35.356 1.657a4.129 4.129 0 00-5.838 0l-5.81 5.813 7.372 7.372a4.902 4.902 0 016.208 6.25l7.105 7.106a4.91 4.91 0 015.075 8.112 4.912 4.912 0 01-8.017-5.343l-6.626-6.626-.001 17.438a4.913 4.913 0 11-5.647 7.877c-1.919-1.922-2.076-5.03-.158-6.948.474-.474.942-.832 1.45-1.072v-17.6c-.508-.24-.975-.595-1.45-1.072-1.453-1.452-1.725-3.585-.98-5.37l-7.227-7.27L1.64 29.516a4.13 4.13 0 00.01 5.84l27.994 27.988a4.133 4.133 0 005.84 0l27.86-27.858a4.131 4.131 0 00.002-5.84z" fill="#F34F29"/></svg>