<svg width="30" height="65" fill="none" xmlns="http://www.w3.org/2000/svg"><g clip-path="url(#clip0_58_281)"><path d="M22.626 63.019l.623-10.385 1.718-2.938s-3.911 1.602-10.46 1.602c-6.549 0-10.401-1.572-10.401-1.572l1.926 3.204.681 10.089c0 1.082 3.562 1.958 7.957 1.958 4.394 0 7.956-.876 7.956-1.958zm-1.963-48.497l1.306-5.17 7.235-7.623L27.297.103l-7.66 8.12-1.516 6.177a101.385 101.385 0 00-3.426-.057c-8.067 0-14.607.92-14.607 2.056 0 1.136 6.54 2.056 14.607 2.056s14.606-.92 14.606-2.056c0-.836-3.547-1.556-8.638-1.877" fill="#D34A47"/><path d="M19.903 17.417s-.283.064-1.115.067c-.833.004-1.424-.005-1.66-.22a.372.372 0 01-.097-.25c0-.147.105-.234.238-.288l.126.198c-.055.019-.086.041-.086.065 0 .112.851.189 1.503.18.651-.008 1.439-.061 1.44-.172 0-.033-.06-.065-.164-.09l.126-.196c.169.052.316.154.316.33-.002.298-.381.343-.627.376" fill="#fff"/><path d="M29.19 1.743c.182-.21-.094-.748-.617-1.202-.522-.453-1.093-.65-1.276-.44-.182.211.095.75.617 1.202.522.454 1.094.65 1.276.44zm-6.912 35.909c-.171-1.652 3.609-4.044 2.639-4.121-2.089.12-3.128 2.45-4.179 4.892-.385.895-1.702 4.71-2.566 4.24-.864-.47 1.12-3.607 1.676-5.47-.642.471-2.995 2.302-3.601.587-.975.83-3.058 1.279-2.823-.9-.519.92-1.683 2.205-3.08 1.671-1.835-.7 1.063-6.553 1.784-6.258.72.296-.145 1.629-.372 2.147-.5 1.139-1.075 2.571-.69 2.864.66.503 2.454-1.9 2.494-1.953.336-.444 1.292-3.35 2.063-3.016.77.334-1.923 4.17-.916 4.931.203.154 1.034-.094 1.54-.642.327-.354.215-1.14 1.305-3.743 1.09-2.603 2.062-5.846 2.81-5.599.748.247.131 1.911-.137 2.532-1.259 2.911-3.436 7.722-2.409 7.358 1.027-.364 1.561-.386 2.566-1.564 1.006-1.178.96-3.118 1.63-3.077.67.042.557.664.395 1.137.659-.755 3.126-2.347 3.721-.77.705 1.866-3.529 4.561-2.473 4.423 1.03-.133 2.697-1.191 3.409-2.153l1.96-17.642S27.05 19.16 14.505 19.16C1.958 19.16.19 17.56.19 17.56l1.67 16.103c.886-2.52 2.989-7.618 6.304-7.447 1.508.078 3.52 2.985 1.796 3.084-.73.041-.804-1.451-1.668-1.67-.624-.159-1.492.349-2.053.899-1.12 1.097-3.526 5.424-3.208 7.581.405 2.75 3.79-.956 4.363-2.056.403-.775.676-3.072 1.558-2.83.882.24-.077 2.61-.717 4.706-.718 2.352-1.096 4.834-1.996 4.549-.9-.286.566-3.323.513-3.855-.846.782-2.406 2.761-4.4 1.782l1.036 10s2.754 2.179 11.05 2.179c8.296 0 11.152-2.145 11.152-2.145l1.287-11.583c-1.053 1.027-4.384 2.85-4.598.795" fill="#D34A47"/></g><defs><clipPath id="clip0_58_281"><path fill="#fff" d="M0 0h29.367v65H0z"/></clipPath></defs></svg>