<svg width="65" height="65" fill="none" xmlns="http://www.w3.org/2000/svg"><path d="M9.014 58.398L3.809 0h57.255L55.86 58.398 32.373 65" fill="#E34F26"/><path d="M32.5 59.922l18.916-5.205 4.443-50.02H32.5" fill="#EF652A"/><path d="M32.5 26.406h-9.521l-.635-7.363H32.5v-7.11H14.473l1.904 21.71H32.5v-7.237zm-.127 18.662l-7.998-2.158-.508-5.713h-7.11l.89 11.3 14.726 4.062v-7.49z" fill="#EBEBEB"/><path d="M32.373 26.406v7.237h8.887l-.889 9.267-7.998 2.158v7.49L47.1 48.497l2.03-22.09H32.374zm0-14.472v7.109h17.393l.634-7.11H32.373z" fill="#fff"/></svg>