<svg width="65" height="65" fill="none" xmlns="http://www.w3.org/2000/svg"><path d="M24.355 40.127l.098.048.175.084c.223.106.448.211.675.312l.142.064c.26.114.523.223.788.328l.192.075c.245.095.493.188.743.275l.093.032c.274.096.55.185.829.272l.2.059c.284.086.564.188.856.242C47.71 45.303 53.1 30.763 53.1 30.763c-4.529 5.9-12.567 7.456-20.183 5.724-.288-.065-.569-.156-.85-.24l-.212-.063a25.801 25.801 0 01-.818-.266l-.113-.04a26.052 26.052 0 01-.721-.268L30 35.53a22.004 22.004 0 01-.78-.324l-.155-.069c-.22-.1-.44-.2-.657-.305l-.19-.092c-.171-.083-.34-.172-.509-.259l-.34-.178a19.25 19.25 0 01-.608-.341l-.206-.115c-.267-.158-.532-.32-.793-.486l-.214-.143c-.19-.122-.379-.247-.565-.375l-.182-.128c-.18-.127-.357-.255-.533-.386l-.237-.18a23.791 23.791 0 01-.481-.375l-.215-.173a31.36 31.36 0 01-.6-.505l-.066-.055a25 25 0 01-.632-.573l-.177-.17a18.796 18.796 0 01-.454-.444l-.178-.178c-.188-.194-.374-.39-.556-.588l-.027-.03a21.39 21.39 0 01-.564-.642l-.148-.175a22.84 22.84 0 01-.406-.502l-.149-.185c-.16-.207-.315-.414-.468-.624-4.228-5.768-5.748-13.723-2.368-20.256l-2.996 3.8c-3.838 5.516-3.36 12.694-.428 18.556l.214.417.138.264.085.152.153.273c.091.16.184.32.28.48l.16.263c.105.171.213.34.325.508l.138.214c.152.228.309.455.47.679l.013.018.08.107c.14.192.283.382.428.57l.162.205c.13.163.262.326.396.487l.151.18c.18.213.364.425.552.631l.011.012.022.023c.183.2.37.395.56.591l.18.182c.147.148.297.294.448.439l.183.174c.202.19.406.376.614.56l.01.007.107.091c.183.159.37.317.558.471l.23.184c.154.123.31.244.466.364l.248.189c.173.127.346.252.522.374l.19.135.052.037c.167.115.337.225.507.335l.22.146c.26.165.525.328.793.486l.22.123c.196.114.394.225.594.334l.33.17.426.222zm1.875-18.685c.416.596.877 1.305 1.429 1.785.2.22.41.434.622.646l.165.162c.208.2.418.398.636.59l.026.023.006.007c.241.21.49.414.743.614l.17.132c.253.195.512.386.777.568l.023.016.354.234.169.112c.189.12.38.24.576.352l.081.047c.168.098.339.193.51.285l.18.095.357.185.054.024c.244.12.491.236.743.346l.164.068c.201.085.405.169.609.247l.261.096c.186.069.372.132.56.194l.253.081c.267.083.53.188.809.234 14.331 2.375 17.64-8.66 17.64-8.66-2.983 4.295-8.758 6.344-14.922 4.745a16.83 16.83 0 01-.812-.235l-.244-.078a16.17 16.17 0 01-.568-.196l-.256-.096c-.205-.079-.41-.16-.611-.246l-.165-.07c-.253-.11-.502-.226-.747-.348l-.375-.19-.217-.112c-.16-.086-.318-.177-.474-.268l-.113-.064c-.195-.113-.386-.23-.575-.35l-.173-.116-.372-.246a19.41 19.41 0 01-.774-.566l-.175-.138c-2.698-2.129-4.836-5.04-5.853-8.342-1.066-3.423-.836-7.266 1.01-10.384l-2.268 3.202c-2.776 3.994-2.625 9.342-.46 13.566.363.707.77 1.395 1.227 2.05zm15.106-4.941l.356.123.157.05c.17.053.336.115.51.147 7.914 1.53 10.06-4.06 10.632-4.884-1.88 2.708-5.04 3.357-8.917 2.416a9.823 9.823 0 01-.939-.29 11.6 11.6 0 01-1.113-.462 11.517 11.517 0 01-1.953-1.191c-3.47-2.633-5.625-7.654-3.361-11.744l-1.225 1.688c-1.636 2.409-1.797 5.4-.661 8.058 1.197 2.824 3.65 5.038 6.514 6.089zM33.698 48.9h-2.146a.282.282 0 00-.263.211l-.762 3.525-.761 3.524a.281.281 0 01-.262.212h-1.52c-1.502 0-1.328-1.04-1.02-2.464l.009-.043.033-.18.006-.033.069-.366.073-.392.079-.398.346-1.692.347-1.692a.17.17 0 00-.173-.213H25.55a.28.28 0 00-.26.212l-.474 2.247-.474 2.247v.003l-.044.21c-.546 2.489-.402 4.864 2.563 4.939l.086.001H31.6a.281.281 0 00.262-.212l1.004-4.717 1.003-4.717c.025-.117-.052-.212-.171-.212zm-22.982-.025H8.36a.285.285 0 00-.265.21l-.223.987-.224.986c-.025.117.05.212.17.212h2.374c.12 0 .238-.096.263-.212l.216-.986.216-.986a.167.167 0 00-.17-.211zm-.683 3.069H7.658a.286.286 0 00-.265.211l-.334 1.478-.333 1.477-.093.424-.32 1.508-.32 1.509a4.57 4.57 0 01-.114.416s-.444 1.32-1.19 1.306l-.094-.003-.645-.011a.283.283 0 00-.267.206l-.246 1.036-.246 1.035c-.028.116.048.211.166.213.423.005 1.37.016 1.944.016 1.863 0 2.846-1.032 3.475-4.003l.737-3.41.69-3.197c.026-.116-.051-.211-.17-.211zm43.73-.8l-.098-.406-.097-.416-.049-.21c-.193-.75-.759-1.183-1.989-1.183l-1.914-.002-1.764-.002h-1.984a.28.28 0 00-.261.211l-.088.415-.103.49-.03.137-.893 4.184-.848 3.972a.927.927 0 00-.019.318c.014.059.243.106.362.106h1.79c.119 0 .27-.021.335-.047.065-.027.16-.261.185-.377l.317-1.574.319-1.574v-.003l.043-.21.386-1.807.34-1.597a.282.282 0 01.262-.212l5.631-.002c.12 0 .195-.094.168-.21zm7.25-3.676l-.434.002h-1.802a.46.46 0 00-.339.179l-3.986 5.839c-.066.098-.143.084-.17-.032l-.293-1.286a.285.285 0 00-.265-.211h-2.562c-.12 0-.19.093-.157.207l1.148 4.023a.953.953 0 01.005.418l-.5 1.947c-.03.115.043.21.163.21h2.532c.119 0 .24-.095.27-.21l.5-1.947a1.28 1.28 0 01.185-.383l6.47-8.588c.073-.095.034-.173-.085-.172l-.68.004zm-20.356 5.037v-.002a.26.26 0 01-.254.224h-3.248c-.113 0-.17-.076-.153-.17l.003-.008h-.002l.002-.01.014-.055c.31-.825.942-1.366 2.13-1.366 1.338 0 1.599.652 1.508 1.387zm-.953-3.75c-4.17 0-5.158 2.531-5.713 5.086-.554 2.604-.507 5.038 3.809 5.038h.683l.518-.002h.01c1.139-.005 2.282-.013 2.745-.017a.28.28 0 00.258-.213l.175-.854.034-.166.208-1.018a.17.17 0 00-.173-.213h-3.88c-1.542 0-2-.41-1.831-1.615h6.204a.256.256 0 00.226-.16l.015-.054c.92-3.472.656-5.811-3.288-5.812zm-19.709 3.737l-.059.208-.468 1.66L19 56.019a.303.303 0 01-.276.208h-2.478c-1.88 0-2.338-1.47-1.88-3.639.458-2.218 1.355-3.596 3.206-3.736 2.529-.191 3.034 1.587 2.423 3.64zm1.7 3.608s1.169-2.838 1.434-4.476c.362-2.193-.736-5.375-4.979-5.375-4.217 0-6.05 3.037-6.748 6.34-.7 3.325.216 6.242 4.41 6.218l3.31-.012 3.091-.011a.3.3 0 00.272-.21l.538-2.055c.03-.116-.042-.21-.162-.212l-.516-.003-.516-.003c-.101 0-.16-.066-.147-.153l.014-.048zm20.882-1.9a.142.142 0 11-.285 0 .142.142 0 01.285 0z" fill="#0868AC"/></svg>