<svg width="65" height="65" fill="none" xmlns="http://www.w3.org/2000/svg"><g clip-path="url(#clip0_66_490)"><path d="M61.377-.24H4l5.379 58.33 23.306 6.61 23.307-6.61L61.377-.24z" fill="#E6A329"/><path d="M32.685 4.512v55.245l18.884-5.35 4.594-49.895H32.686z" fill="#F1BF22"/><path d="M47.709 11.668H18.674l-2.022 21.837.041-.136H41.36l-.803 9.24-7.87 2.264-7.987-2.3-.478-5.593h-7.25l1.035 11.174 14.68 4.167 14.686-4.167 2.022-21.933H23.217l.336-7.308h18.163l.271 4.187h7.31L47.71 11.668z" fill="#fff"/><path d="M32.692 11.668H18.674l-2.022 21.837.041-.136h15.998v-7.123h-8.453l.336-7.308h8.118v-7.27zm-8.454 25.316h-7.266l1.034 11.168 14.68 4.163v-7.432l-7.987-2.306-.461-5.593z" fill="#EBEBEB"/></g><defs><clipPath id="clip0_66_490"><path fill="#fff" transform="translate(4)" d="M0 0h57.697v65H0z"/></clipPath></defs></svg>