<svg width="87" height="65" fill="none" xmlns="http://www.w3.org/2000/svg"><g clip-path="url(#clip0_58_334)"><path d="M74.626 37.341c-3.032.017-5.657.745-7.859 1.829-.813-1.608-1.626-3.014-1.761-4.063-.152-1.218-.339-1.963-.152-3.419.186-1.456 1.033-3.521 1.033-3.69-.017-.153-.187-.898-1.931-.914-1.745-.017-3.252.338-3.422.795a19.488 19.488 0 00-.728 2.59c-.305 1.591-3.49 7.228-5.301 10.19-.593-1.15-1.101-2.166-1.203-2.98-.152-1.218-.339-1.963-.152-3.418.186-1.456 1.033-3.521 1.033-3.69-.017-.153-.187-.898-1.93-.915-1.746-.016-3.253.34-3.422.796-.17.457-.356 1.54-.729 2.59-.355 1.05-4.59 10.46-5.69 12.915a52.215 52.215 0 01-1.407 2.929c-.355.677-.016.05-.05.118l-.474.897v.017c-.238.424-.492.83-.61.83-.085 0-.255-1.134.033-2.692.627-3.267 2.151-8.361 2.135-8.548 0-.084.288-.982-.983-1.439-1.236-.457-1.676.305-1.778.305-.102 0-.187.271-.187.271s1.372-5.738-2.625-5.738c-2.507 0-5.962 2.725-7.672 5.213-1.085.593-3.388 1.845-5.827 3.183-.931.508-1.897 1.05-2.812 1.54l-.186-.203c-4.844-5.163-13.804-8.82-13.431-15.76.135-2.522 1.016-9.174 17.209-17.231 13.261-6.602 23.881-4.79 25.727-.762C52.1 14.642 43.8 25.34 30.014 26.881c-5.251.592-8.012-1.44-8.706-2.201-.729-.796-.83-.83-1.101-.677-.44.237-.17.948 0 1.371.406 1.066 2.1 2.962 4.98 3.91 2.523.83 8.688 1.287 16.14-1.591C49.678 24.46 56.2 15.489 54.285 7.99 52.337.356 39.668-2.15 27.693 2.1c-7.13 2.538-14.854 6.5-20.41 11.696C.678 19.957-.373 25.34.068 27.575c1.541 7.972 12.534 13.169 16.937 17.011-.22.119-.423.237-.61.339C14.194 46.008 5.81 50.392 3.71 55.03c-2.37 5.248.373 9.022 2.202 9.53 5.657 1.574 11.45-1.252 14.583-5.907 3.117-4.655 2.744-10.698 1.305-13.457l-.052-.102 1.728-1.016a103.95 103.95 0 013.184-1.794c-.541 1.473-.931 3.216-1.134 5.755-.237 2.98.982 6.839 2.591 8.362.712.66 1.558.677 2.084.677 1.863 0 2.71-1.54 3.641-3.385 1.152-2.252 2.168-4.858 2.168-4.858s-1.27 7.058 2.202 7.058c1.27 0 2.54-1.642 3.116-2.488v.017s.034-.05.102-.17c.071-.104.139-.212.203-.32v-.035c.508-.88 1.643-2.894 3.337-6.229 2.185-4.3 4.285-9.682 4.285-9.682s.203 1.32.83 3.487c.372 1.287 1.185 2.691 1.812 4.062a66.24 66.24 0 01-.813 1.118l.017.017a48.17 48.17 0 01-1.338 1.692c-1.727 2.066-3.794 4.419-4.065 5.096-.322.795-.254 1.388.373 1.862.457.338 1.27.406 2.134.338 1.558-.102 2.642-.49 3.184-.728a11.027 11.027 0 002.744-1.439c1.694-1.252 2.727-3.03 2.625-5.4-.05-1.303-.474-2.59-.999-3.808.152-.22.305-.44.457-.677 2.676-3.91 4.743-8.21 4.743-8.21s.203 1.32.83 3.487c.321 1.1.965 2.303 1.541 3.488-2.507 2.048-4.082 4.418-4.624 5.975-1 2.877-.22 4.18 1.254 4.486.66.135 1.608-.17 2.32-.474a10.52 10.52 0 002.93-1.507c1.694-1.253 3.32-2.996 3.235-5.349-.05-1.083-.339-2.15-.728-3.165 2.134-.88 4.895-1.388 8.4-.965 7.538.88 9.028 5.586 8.74 7.55-.287 1.963-1.862 3.046-2.388 3.385-.525.321-.694.44-.643.677.067.355.305.338.762.27.627-.1 3.963-1.607 4.099-5.23.203-4.655-4.218-9.733-12.06-9.683zM16.497 56.926c-2.49 2.725-5.996 3.758-7.486 2.878-1.61-.931-.983-4.943 2.083-7.838 1.863-1.76 4.285-3.385 5.877-4.384.356-.22.898-.541 1.542-.93.101-.068.169-.102.169-.102.119-.068.254-.153.39-.237 1.134 4.13.05 7.752-2.575 10.613zm18.208-12.374c-.864 2.116-2.693 7.55-3.794 7.245-.949-.254-1.524-4.367-.187-8.43.678-2.048 2.118-4.485 2.964-5.433 1.372-1.524 2.863-2.031 3.236-1.405.44.812-1.677 6.703-2.22 8.023zm15.023 7.178c-.372.186-.711.321-.864.22-.118-.068.153-.322.153-.322s1.88-2.014 2.625-2.945c.423-.542.932-1.168 1.474-1.88v.204c0 2.437-2.338 4.062-3.388 4.723zm11.585-2.641c-.27-.203-.237-.83.678-2.793.356-.779 1.169-2.082 2.574-3.318.17.508.272.999.254 1.456-.016 3.047-2.184 4.18-3.506 4.655z" fill="#CF649A"/></g><defs><clipPath id="clip0_58_334"><path fill="#fff" d="M0 0h86.719v65H0z"/></clipPath></defs></svg>