<?xml version="1.0" encoding="iso-8859-1"?>
<!-- Uploaded to: SVG Repo, www.svgrepo.com, Generator: SVG Repo Mixer Tools -->
<svg fill="#fff" height="25px" width="25px" version="1.1" id="Layer_1" xmlns="http://www.w3.org/2000/svg" xmlns:xlink="http://www.w3.org/1999/xlink" 
	 viewBox="0 0 512 512" xml:space="preserve">
<g>
	<g>
		<path d="M499.708,80.167c4.428,0,8.017-3.589,8.017-8.017V40.083C507.724,17.981,489.744,0,467.641,0H44.359
			C22.257,0,4.276,17.981,4.276,40.083v320.668c0,22.103,17.981,40.083,40.083,40.083h59.858c4.427,0,8.017-3.589,8.017-8.017
			c0-4.427-3.589-8.017-8.017-8.017H44.359c-13.262,0-24.05-10.788-24.05-24.05v-11.223h471.382v11.223
			c0,13.262-10.789,24.05-24.05,24.05H142.697c-4.427,0-8.017,3.589-8.017,8.017c0,4.427,3.589,8.017,8.017,8.017h62.535
			l-11.891,95.132h-61.332c-4.427,0-8.017,3.589-8.017,8.017c0,4.427,3.589,8.017,8.017,8.017h247.983
			c4.428,0,8.017-3.589,8.017-8.017c0-4.427-3.588-8.017-8.017-8.017H318.66l-11.891-95.132h160.873
			c22.103,0,40.083-17.981,40.083-40.083V112.768c0-4.427-3.588-8.017-8.017-8.017c-4.428,0-8.017,3.589-8.017,8.017v220.727H20.309
			V40.083c0-13.262,10.788-24.05,24.05-24.05h423.282c13.261,0,24.05,10.788,24.05,24.05V72.15
			C491.691,76.578,495.279,80.167,499.708,80.167z M209.499,495.967l11.891-95.132h69.219l11.891,95.132H209.499z"/>
	</g>
</g>
<g>
	<g>
		<path d="M264.551,359.148h-17.102c-4.427,0-8.017,3.589-8.017,8.017c0,4.427,3.589,8.017,8.017,8.017h17.102
			c4.428,0,8.017-3.589,8.017-8.017C272.568,362.738,268.98,359.148,264.551,359.148z"/>
	</g>
</g>
<g>
	<g>
		<path d="M399.322,123.046c-1.506-2.091-3.926-3.33-6.503-3.33h-55.575c-0.018,0-0.036,0-0.055,0H200.457c-0.015,0-0.03,0-0.044,0
			h-50.889l-14.133-45.661c-1.04-3.356-4.144-5.646-7.659-5.646H72.15c-4.427,0-8.017,3.589-8.017,8.017s3.589,8.017,8.017,8.017
			h49.671l53.835,173.928c1.039,3.357,4.143,5.646,7.659,5.646h166.747c3.451,0,6.515-2.208,7.605-5.481l42.756-128.267
			C401.239,127.824,400.829,125.136,399.322,123.046z M276.843,135.749h50.581l-5.435,26.722h-45.146V135.749z M154.487,135.749
			h39.38l5.435,26.722h-36.544L154.487,135.749z M175.993,205.228l-8.272-26.722h34.843l5.435,26.722H175.993z M189.226,247.983
			l-8.271-26.722h30.304l5.435,26.722H189.226z M260.81,247.983h-27.754l-5.435-26.722h33.189V247.983z M260.81,205.228h-36.45
			l-5.434-26.722h41.885V205.228z M260.81,162.472h-45.146l-5.435-26.722h50.581V162.472z M304.597,247.983h-27.754v-26.722h33.189
			L304.597,247.983z M313.293,205.228h-36.449v-26.722h41.885L313.293,205.228z M344.285,247.983h-23.326l5.435-26.722h26.798
			L344.285,247.983z M358.538,205.228h-28.881l5.434-26.722h32.354L358.538,205.228z M372.788,162.472h-34.438l5.435-26.722h37.91
			L372.788,162.472z"/>
	</g>
</g>
<g>
	<g>
		<path d="M315.858,265.086c-16.208,0-29.395,13.186-29.395,29.395c0,16.209,13.187,29.395,29.395,29.395
			s29.395-13.186,29.395-29.395C345.253,278.271,332.066,265.086,315.858,265.086z M315.858,307.841
			c-7.368,0-13.361-5.993-13.361-13.361c0-7.368,5.993-13.361,13.361-13.361c7.368,0,13.361,5.993,13.361,13.361
			C329.219,301.848,323.226,307.841,315.858,307.841z"/>
	</g>
</g>
<g>
	<g>
		<path d="M221.795,265.086c-16.209,0-29.395,13.186-29.395,29.395c0,16.209,13.186,29.395,29.395,29.395
			s29.395-13.186,29.395-29.395C251.19,278.271,238.004,265.086,221.795,265.086z M221.795,307.841
			c-7.368,0-13.361-5.993-13.361-13.361c0-7.368,5.993-13.361,13.361-13.361c7.368,0,13.361,5.993,13.361,13.361
			C235.157,301.848,229.163,307.841,221.795,307.841z"/>
	</g>
</g>
<g>
	<g>
		<path d="M314.867,65.208c-1.131-3.206-4.16-5.35-7.56-5.35h-13.361V40.083c0-4.427-3.588-8.017-8.017-8.017h-34.205
			c-4.427,0-8.017,3.589-8.017,8.017v19.775h-13.361c-3.4,0-6.429,2.144-7.56,5.35c-1.131,3.207-0.115,6.777,2.531,8.909
			l38.48,30.998c1.468,1.182,3.248,1.773,5.029,1.773s3.562-0.591,5.029-1.773l38.48-30.998
			C314.984,71.984,315.998,68.413,314.867,65.208z M268.827,88.578L252.96,75.796c3.841-0.594,6.781-3.914,6.781-7.922V48.1h18.171
			v19.775c0,4.007,2.94,7.327,6.781,7.923L268.827,88.578z"/>
	</g>
</g>
</svg>